<svg width="500px" height="500px" viewBox="0 0 500 500" version="1.1" xmlns="http://www.w3.org/2000/svg" xmlns:xlink="http://www.w3.org/1999/xlink">
    <g stroke="none" stroke-width="1" fill="none" fill-rule="evenodd">
        <g fill="#8F98A2">
            <path d="M291.988615,272.448962 L308.546001,303.588876 C291.233567,316.332379 280,336.854319 280,360 C280,398.659932 311.340068,430 350,430 C388.659932,430 420,398.659932 420,360 C420,321.340068 388.659932,290 350,290 C341.637121,290 333.616768,291.466525 326.182082,294.156431 L310.090974,263.893458 C345.908881,243.131975 370,204.379379 370,160 C370,93.72583 316.27417,40 250,40 C183.72583,40 130,93.72583 130,160 C130,203.747531 153.410011,242.02736 188.386329,262.995783 L172.129691,293.570071 C165.174229,291.254117 157.733572,290 150,290 C111.340068,290 80,321.340068 80,360 C80,398.659932 111.340068,430 150,430 C188.659932,430 220,398.659932 220,360 C220,336.21511 208.137396,315.20088 190.005858,302.55098 L206.349103,271.813807 C219.877417,277.099053 234.599932,280 250,280 C264.771561,280 278.919745,277.331008 291.988615,272.448962 Z M250,500 C111.928813,500 0,388.071187 0,250 C0,111.928813 111.928813,0 250,0 C388.071187,0 500,111.928813 500,250 C500,388.071187 388.071187,500 250,500 Z M263.324219,245.189453 L235.287109,245.189453 L235.287109,224.447266 C234.232422,224.447266 232.826172,224.359375 231.068359,224.183594 C229.310547,224.007812 226.146484,223.128906 221.664062,221.634766 C217.181641,220.140625 213.138672,218.207031 209.710938,215.746094 C206.283203,213.285156 203.119141,209.330078 200.306641,203.96875 C197.40625,198.607422 196,192.191406 196,184.896484 L196,180.326172 L225.707031,180.326172 L225.707031,185.423828 C225.707031,196.761719 233.792969,202.386719 249.876953,202.298828 C265.785156,202.298828 273.783203,197.289062 273.783203,187.181641 C273.783203,183.929688 271.9375,181.292969 268.333984,179.095703 C264.642578,176.898438 260.072266,175.316406 254.535156,174.261719 C248.998047,173.294922 243.021484,171.800781 236.605469,169.867188 C230.101562,168.021484 224.125,165.824219 218.587891,163.451172 C213.050781,161.078125 208.392578,157.210938 204.789062,151.9375 C201.097656,146.664062 199.251953,140.335938 199.251953,132.865234 C199.251953,123.724609 202.152344,115.726562 206.371094,110.892578 C208.480469,108.519531 210.853516,106.322266 213.402344,104.476562 C221.048828,99.203125 229.574219,97.4453125 233.265625,96.8300781 L235.287109,96.6542969 L235.287109,76 L263.324219,76 L263.324219,96.8300781 C264.291016,96.8300781 265.345703,96.9179688 270.179688,97.9726562 C275.013672,99.1152344 279.144531,100.521484 284.505859,104.388672 C289.867188,108.255859 293.734375,112.650391 296.371094,120.560547 C297.689453,124.515625 298.304688,128.910156 298.304688,133.744141 L298.304688,136.996094 L268.597656,136.996094 L268.597656,133.744141 C268.597656,123.8125 262.005859,118.802734 248.734375,118.802734 C236.517578,118.802734 228.958984,124.076172 228.958984,132.513672 C228.958984,138.929688 235.023438,142.884766 243.8125,145.169922 C252.601562,147.455078 263.587891,149.037109 274.134766,152.464844 C284.681641,155.892578 293.822266,160.199219 299.359375,169.691406 C302.083984,174.4375 303.490234,180.0625 303.490234,186.654297 C303.490234,202.035156 295.931641,211.615234 287.757812,216.888672 C279.232422,222.601562 270.003906,223.832031 265.521484,224.447266 L263.324219,224.623047 L263.324219,245.189453 Z M157.469892,410.190002 L141.032691,410.190002 L141.032691,398.029566 C140.414364,398.029566 139.589928,397.978039 138.559382,397.874984 C137.528837,397.771929 135.673855,397.256657 133.045964,396.380693 C130.418073,395.504729 128.047818,394.371129 126.038255,392.928366 C124.028691,391.485602 122.173709,389.166875 120.524836,386.023711 C118.824436,382.880547 118,379.119056 118,374.842292 L118,372.162874 L135.416219,372.162874 L135.416219,375.151456 C135.416219,381.798474 140.156728,385.09622 149.586219,385.044693 C158.912656,385.044693 163.601637,382.107638 163.601637,376.182002 C163.601637,374.275492 162.519565,372.729674 160.406946,371.441492 C158.242801,370.153311 155.563383,369.22582 152.317164,368.607492 C149.070946,368.040692 145.567092,367.164729 141.805601,366.031129 C137.992582,364.949056 134.488728,363.660874 131.242509,362.269638 C127.996291,360.878401 125.265346,358.611201 123.152727,355.519565 C120.988582,352.427928 119.906509,348.717965 119.906509,344.338146 C119.906509,338.97931 121.606909,334.290328 124.080218,331.456328 C125.316873,330.065091 126.708109,328.77691 128.2024,327.694837 C132.685273,324.6032 137.683419,323.572655 139.847564,323.211964 L141.032691,323.108909 L141.032691,311 L157.469892,311 L157.469892,323.211964 C158.036692,323.211964 158.655019,323.263491 161.489019,323.881818 C164.323019,324.551673 166.744801,325.376109 169.887965,327.64331 C173.031129,329.91051 175.298329,332.486873 176.844147,337.124328 C177.617056,339.443055 177.977747,342.019419 177.977747,344.853419 L177.977747,346.759928 L160.561528,346.759928 L160.561528,344.853419 C160.561528,339.030837 156.696983,336.093782 148.916364,336.093782 C141.754073,336.093782 137.322728,339.185419 137.322728,344.132037 C137.322728,347.893528 140.87811,350.212256 146.030837,351.551965 C151.183564,352.891674 157.624474,353.819165 163.807747,355.828728 C169.991019,357.838292 175.349856,360.363128 178.596074,365.928074 C180.19342,368.710547 181.017856,372.008292 181.017856,375.872838 C181.017856,384.890111 176.586511,390.506584 171.794474,393.59822 C166.796328,396.947493 161.385965,397.668875 158.758074,398.029566 L157.469892,398.13262 L157.469892,410.190002 Z M357.469892,410.190002 L341.032691,410.190002 L341.032691,398.029566 C340.414364,398.029566 339.589928,397.978039 338.559382,397.874984 C337.528837,397.771929 335.673855,397.256657 333.045964,396.380693 C330.418073,395.504729 328.047818,394.371129 326.038255,392.928366 C324.028691,391.485602 322.173709,389.166875 320.524836,386.023711 C318.824436,382.880547 318,379.119056 318,374.842292 L318,372.162874 L335.416219,372.162874 L335.416219,375.151456 C335.416219,381.798474 340.156728,385.09622 349.586219,385.044693 C358.912656,385.044693 363.601637,382.107638 363.601637,376.182002 C363.601637,374.275492 362.519565,372.729674 360.406946,371.441492 C358.242801,370.153311 355.563383,369.22582 352.317164,368.607492 C349.070946,368.040692 345.567092,367.164729 341.805601,366.031129 C337.992582,364.949056 334.488728,363.660874 331.242509,362.269638 C327.996291,360.878401 325.265346,358.611201 323.152727,355.519565 C320.988582,352.427928 319.906509,348.717965 319.906509,344.338146 C319.906509,338.97931 321.606909,334.290328 324.080218,331.456328 C325.316873,330.065091 326.708109,328.77691 328.2024,327.694837 C332.685273,324.6032 337.683419,323.572655 339.847564,323.211964 L341.032691,323.108909 L341.032691,311 L357.469892,311 L357.469892,323.211964 C358.036692,323.211964 358.655019,323.263491 361.489019,323.881818 C364.323019,324.551673 366.744801,325.376109 369.887965,327.64331 C373.031129,329.91051 375.298329,332.486873 376.844147,337.124328 C377.617056,339.443055 377.977747,342.019419 377.977747,344.853419 L377.977747,346.759928 L360.561528,346.759928 L360.561528,344.853419 C360.561528,339.030837 356.696983,336.093782 348.916364,336.093782 C341.754073,336.093782 337.322728,339.185419 337.322728,344.132037 C337.322728,347.893528 340.87811,350.212256 346.030837,351.551965 C351.183564,352.891674 357.624474,353.819165 363.807747,355.828728 C369.991019,357.838292 375.349856,360.363128 378.596074,365.928074 C380.19342,368.710547 381.017856,372.008292 381.017856,375.872838 C381.017856,384.890111 376.586511,390.506584 371.794474,393.59822 C366.796328,396.947493 361.385965,397.668875 358.758074,398.029566 L357.469892,398.13262 L357.469892,410.190002 Z"></path>
        </g>
    </g>
</svg>