<?xml version="1.0" encoding="UTF-8"?>
<svg xmlns="http://www.w3.org/2000/svg" width="344" height="345" viewBox="0 0 344 345">
  <g fill="none" fill-rule="evenodd">
    <path fill="#93D932" d="M73.013407,2.6866064 C106.18824,0.895535467 139.183771,-3.78753344e-15 172,0 C204.832174,0 237.664282,0.896405919 270.496323,2.68921776 L270.496323,2.68921771 C308.699378,4.77531668 339.208201,35.2833237 341.295323,73.4863222 C343.098441,106.490881 344,139.495441 344,172.5 C344,205.511425 343.098066,238.52285 341.294197,271.534276 L341.294197,271.534275 C339.20649,309.740047 308.693155,340.248892 270.487077,342.330977 C237.836179,344.110326 205.007154,345 172,345 C139.007428,345 106.01479,344.111111 73.0220864,342.333334 L73.0220864,342.333335 C34.4742283,340.256224 3.79947595,309.257162 2.12787429,270.689591 C0.709291429,237.959727 1.89395185e-15,205.229864 0,172.5 C0,139.776865 0.708999838,107.053729 2.12699951,74.3305938 L2.12699924,74.3305938 C3.79813889,35.7657548 34.4685114,4.76760084 73.013407,2.6866064 Z"/>
    <path fill="#1C2E04" fill-rule="nonzero" d="M257.126784,68.8666872 L247.746837,75.0669913 C245.361826,76.7419309 242.182739,76.7419309 239.797729,75.0669913 L223.899513,64.2562047 C221.514503,62.5812651 218.335416,62.5812651 215.950405,64.2562047 L200.052189,75.0669913 C197.667179,76.7419309 194.488092,76.7419309 192.103082,75.0669913 L176.204866,64.2562047 C173.819856,62.5812651 170.640768,62.5812651 168.255758,64.2562047 L152.357542,75.0669913 C149.972532,76.7419309 146.793445,76.7419309 144.408435,75.0669913 L128.510219,64.2562047 C126.125208,62.5812651 122.946121,62.5812651 120.561111,64.2562047 L104.662895,75.0669913 C102.277885,76.7419309 99.0987979,76.7419309 96.7137875,75.0669913 L87.6518045,68.8666872 C85.5380648,67.5093863 82.8545447,67.40498 80.6417387,68.5939504 C78.4289326,69.7829209 77.0348403,72.078283 77,74.5900449 L77,271.409955 C77.0348403,273.921717 78.4289326,276.217079 80.6417387,277.40605 C82.8545447,278.59502 85.5380648,278.490614 87.6518045,277.133313 L97.0317518,270.933009 C99.4167622,269.258069 102.595849,269.258069 104.98086,270.933009 L120.879075,281.743795 C123.264086,283.418735 126.443173,283.418735 128.828183,281.743795 L144.726399,270.933009 C147.111409,269.258069 150.290496,269.258069 152.675507,270.933009 L168.573722,281.743795 C170.958733,283.418735 174.13782,283.418735 176.52283,281.743795 L192.421046,270.933009 C194.806056,269.258069 197.985143,269.258069 200.370154,270.933009 L216.268369,281.743795 C218.65338,283.418735 221.832467,283.418735 224.217477,281.743795 L240.115693,270.933009 C242.500703,269.258069 245.67979,269.258069 248.064801,270.933009 L257.444748,277.133313 C259.541154,278.327947 262.108636,278.343562 264.219417,277.174514 C266.330198,276.005466 267.679062,273.820798 267.778588,271.409955 L267.778588,74.5900449 C267.743748,72.078283 266.349656,69.7829209 264.13685,68.5939504 C261.924044,67.40498 259.240523,67.5093863 257.126784,68.8666872 Z M188.28751,222.681924 L188.28751,228.643755 C188.28751,235.229011 182.949105,240.567417 176.363848,240.567417 C169.778592,240.567417 164.440186,235.229011 164.440186,228.643755 L164.440186,222.920397 C157.769403,221.959995 151.250349,220.143209 145.044363,217.515004 C140.36529,215.694011 137.233105,211.246308 137.095255,206.227271 C137.030804,203.052137 138.252753,199.985812 140.483354,197.725271 C142.713955,195.464729 145.763715,194.202006 148.939426,194.224118 C150.66217,194.21924 152.367268,194.571085 153.947364,195.257502 C160.708332,198.235957 168.02213,199.752893 175.409955,199.709002 C190.036314,199.709002 190.036314,194.621573 190.036314,192.395823 C190.036314,188.659742 179.861456,187.149412 174.138098,185.639081 C159.750213,181.982492 137.969657,176.418116 137.969657,153.84265 C138.585884,138.830737 149.625754,126.298993 164.440186,123.795022 L164.440186,117.356245 C164.440186,110.770989 169.778592,105.432583 176.363848,105.432583 C182.949105,105.432583 188.28751,110.770989 188.28751,117.356245 L188.28751,122.920621 C193.574417,123.558779 198.773544,124.78524 203.78827,126.57721 C208.631139,128.183372 211.856988,132.764078 211.737378,137.864943 C211.7798,141.019934 210.561596,144.061441 208.352977,146.31483 C206.144357,148.568219 203.127905,149.847205 199.972698,149.868096 C198.430781,149.917253 196.893466,149.674519 195.441707,149.152676 C189.88985,147.250718 184.060747,146.283678 178.192143,146.290998 C171.276419,146.290998 163.168329,148.198784 163.168329,153.445195 C163.168329,157.022293 168.096776,158.771097 179.861456,161.394303 C193.931376,164.732928 215.234985,169.899848 215.234985,193.190734 C215.234985,208.055566 204.185726,219.104826 188.28751,222.681924 Z"/>
  </g>
</svg>