<svg width="500px" height="500px" viewBox="0 0 500 500" version="1.1" xmlns="http://www.w3.org/2000/svg" xmlns:xlink="http://www.w3.org/1999/xlink">
    <g stroke="none" stroke-width="1" fill="none" fill-rule="evenodd">
        <g>
            <g>
                <circle fill="#5B61F7" cx="250" cy="250" r="250"></circle>
                <g opacity="0.5" transform="translate(80.000000, 168.000000)">
                    <path d="M69.5,192.5 L168.5,0.5" stroke="#FFFFFF" stroke-width="20" stroke-linecap="square"></path>
                    <path d="M269,191 L168.5,0.5" stroke="#FFFFFF" stroke-width="20" stroke-linecap="square"></path>
                    <g transform="translate(200.000000, 122.000000)">
                        <circle fill="#FFFFFF" cx="70" cy="70" r="70"></circle>
                        <path d="M77.7724609,119.693848 L61.4174805,119.693848 L61.4174805,107.594238 C60.8022461,107.594238 59.9819336,107.542969 58.956543,107.44043 C57.9311523,107.337891 56.0854492,106.825195 53.4707031,105.953613 C50.855957,105.082031 48.4975586,103.954102 46.4980469,102.518555 C44.4985352,101.083008 42.652832,98.7758789 41.012207,95.6484375 C39.3203125,92.5209961 38.5,88.7783203 38.5,84.5229492 L38.5,81.8569336 L55.8291016,81.8569336 L55.8291016,84.8305664 C55.8291016,91.4443359 60.5458984,94.7255859 69.9282227,94.6743164 C79.2080078,94.6743164 83.8735352,91.7519531 83.8735352,85.855957 C83.8735352,83.9589844 82.796875,82.4208984 80.6948242,81.1391602 C78.5415039,79.8574219 75.8754883,78.9345703 72.6455078,78.3193359 C69.4155273,77.7553711 65.9291992,76.8837891 62.1865234,75.7558594 C58.3925781,74.6791992 54.90625,73.3974609 51.6762695,72.0131836 C48.4462891,70.6289062 45.7290039,68.3730469 43.6269531,65.296875 C41.4736328,62.2207031 40.3969727,58.5292969 40.3969727,54.1713867 C40.3969727,48.8393555 42.0888672,44.1738281 44.5498047,41.3540039 C45.7802734,39.9697266 47.1645508,38.6879883 48.6513672,37.6113281 C53.1118164,34.5351562 58.0849609,33.5097656 60.2382812,33.1508789 L61.4174805,33.0483398 L61.4174805,21 L77.7724609,21 L77.7724609,33.1508789 C78.3364258,33.1508789 78.9516602,33.2021484 81.7714844,33.8173828 C84.5913086,34.4838867 87.0009766,35.3041992 90.128418,37.5600586 C93.2558594,39.815918 95.5117188,42.3793945 97.0498047,46.9936523 C97.8188477,49.3007812 98.1777344,51.8642578 98.1777344,54.684082 L98.1777344,56.5810547 L80.8486328,56.5810547 L80.8486328,54.684082 C80.8486328,48.890625 77.003418,45.9682617 69.2617188,45.9682617 C62.1352539,45.9682617 57.7260742,49.0444336 57.7260742,53.9663086 C57.7260742,57.7089844 61.2636719,60.0161133 66.390625,61.3491211 C71.5175781,62.6821289 77.9262695,63.6049805 84.0786133,65.6044922 C90.230957,67.6040039 95.5629883,70.1162109 98.7929688,75.6533203 C100.382324,78.421875 101.202637,81.703125 101.202637,85.5483398 C101.202637,94.5205078 96.793457,100.108887 92.0253906,103.185059 C87.0522461,106.517578 81.6689453,107.235352 79.0541992,107.594238 L77.7724609,107.696777 L77.7724609,119.693848 Z" fill="#5B61F7"></path>
                    </g>
                    <g transform="translate(0.000000, 122.000000)">
                        <circle fill="#FFFFFF" cx="70" cy="70" r="70"></circle>
                        <path d="M77.7724609,119.693848 L61.4174805,119.693848 L61.4174805,107.594238 C60.8022461,107.594238 59.9819336,107.542969 58.956543,107.44043 C57.9311523,107.337891 56.0854492,106.825195 53.4707031,105.953613 C50.855957,105.082031 48.4975586,103.954102 46.4980469,102.518555 C44.4985352,101.083008 42.652832,98.7758789 41.012207,95.6484375 C39.3203125,92.5209961 38.5,88.7783203 38.5,84.5229492 L38.5,81.8569336 L55.8291016,81.8569336 L55.8291016,84.8305664 C55.8291016,91.4443359 60.5458984,94.7255859 69.9282227,94.6743164 C79.2080078,94.6743164 83.8735352,91.7519531 83.8735352,85.855957 C83.8735352,83.9589844 82.796875,82.4208984 80.6948242,81.1391602 C78.5415039,79.8574219 75.8754883,78.9345703 72.6455078,78.3193359 C69.4155273,77.7553711 65.9291992,76.8837891 62.1865234,75.7558594 C58.3925781,74.6791992 54.90625,73.3974609 51.6762695,72.0131836 C48.4462891,70.6289062 45.7290039,68.3730469 43.6269531,65.296875 C41.4736328,62.2207031 40.3969727,58.5292969 40.3969727,54.1713867 C40.3969727,48.8393555 42.0888672,44.1738281 44.5498047,41.3540039 C45.7802734,39.9697266 47.1645508,38.6879883 48.6513672,37.6113281 C53.1118164,34.5351562 58.0849609,33.5097656 60.2382812,33.1508789 L61.4174805,33.0483398 L61.4174805,21 L77.7724609,21 L77.7724609,33.1508789 C78.3364258,33.1508789 78.9516602,33.2021484 81.7714844,33.8173828 C84.5913086,34.4838867 87.0009766,35.3041992 90.128418,37.5600586 C93.2558594,39.815918 95.5117188,42.3793945 97.0498047,46.9936523 C97.8188477,49.3007812 98.1777344,51.8642578 98.1777344,54.684082 L98.1777344,56.5810547 L80.8486328,56.5810547 L80.8486328,54.684082 C80.8486328,48.890625 77.003418,45.9682617 69.2617188,45.9682617 C62.1352539,45.9682617 57.7260742,49.0444336 57.7260742,53.9663086 C57.7260742,57.7089844 61.2636719,60.0161133 66.390625,61.3491211 C71.5175781,62.6821289 77.9262695,63.6049805 84.0786133,65.6044922 C90.230957,67.6040039 95.5629883,70.1162109 98.7929688,75.6533203 C100.382324,78.421875 101.202637,81.703125 101.202637,85.5483398 C101.202637,94.5205078 96.793457,100.108887 92.0253906,103.185059 C87.0522461,106.517578 81.6689453,107.235352 79.0541992,107.594238 L77.7724609,107.696777 L77.7724609,119.693848 Z" fill="#5B61F7"></path>
                    </g>
                </g>
                <g transform="translate(130.000000, 40.000000)">
                    <circle fill="#FFFFFF" cx="120" cy="120" r="120"></circle>
                    <path d="M133.324219,205.189453 L105.287109,205.189453 L105.287109,184.447266 C104.232422,184.447266 102.826172,184.359375 101.068359,184.183594 C99.3105469,184.007812 96.1464844,183.128906 91.6640625,181.634766 C87.1816406,180.140625 83.1386719,178.207031 79.7109375,175.746094 C76.2832031,173.285156 73.1191406,169.330078 70.3066406,163.96875 C67.40625,158.607422 66,152.191406 66,144.896484 L66,140.326172 L95.7070312,140.326172 L95.7070312,145.423828 C95.7070312,156.761719 103.792969,162.386719 119.876953,162.298828 C135.785156,162.298828 143.783203,157.289062 143.783203,147.181641 C143.783203,143.929688 141.9375,141.292969 138.333984,139.095703 C134.642578,136.898438 130.072266,135.316406 124.535156,134.261719 C118.998047,133.294922 113.021484,131.800781 106.605469,129.867188 C100.101562,128.021484 94.125,125.824219 88.5878906,123.451172 C83.0507812,121.078125 78.3925781,117.210938 74.7890625,111.9375 C71.0976562,106.664062 69.2519531,100.335938 69.2519531,92.8652344 C69.2519531,83.7246094 72.1523438,75.7265625 76.3710938,70.8925781 C78.4804688,68.5195312 80.8535156,66.3222656 83.4023438,64.4765625 C91.0488281,59.203125 99.5742188,57.4453125 103.265625,56.8300781 L105.287109,56.6542969 L105.287109,36 L133.324219,36 L133.324219,56.8300781 C134.291016,56.8300781 135.345703,56.9179688 140.179688,57.9726562 C145.013672,59.1152344 149.144531,60.5214844 154.505859,64.3886719 C159.867188,68.2558594 163.734375,72.6503906 166.371094,80.5605469 C167.689453,84.515625 168.304688,88.9101562 168.304688,93.7441406 L168.304688,96.9960938 L138.597656,96.9960938 L138.597656,93.7441406 C138.597656,83.8125 132.005859,78.8027344 118.734375,78.8027344 C106.517578,78.8027344 98.9589844,84.0761719 98.9589844,92.5136719 C98.9589844,98.9296875 105.023438,102.884766 113.8125,105.169922 C122.601562,107.455078 133.587891,109.037109 144.134766,112.464844 C154.681641,115.892578 163.822266,120.199219 169.359375,129.691406 C172.083984,134.4375 173.490234,140.0625 173.490234,146.654297 C173.490234,162.035156 165.931641,171.615234 157.757812,176.888672 C149.232422,182.601562 140.003906,183.832031 135.521484,184.447266 L133.324219,184.623047 L133.324219,205.189453 Z" fill="#5B61F7"></path>
                </g>
            </g>
        </g>
    </g>
</svg>